<svg width="170" height="27" viewBox="0 0 170 27" fill="none" xmlns="http://www.w3.org/2000/svg">
<g clip-path="url(#clip0_56_605)">
<path d="M13.5898 3.01245C14.8659 3.08537 15.9141 3.57756 16.7344 4.48901C17.5547 5.38224 18.1471 6.40308 18.5117 7.55151C18.8763 8.69995 19.0586 9.87573 19.0586 11.0789C19.0586 12.282 18.8763 13.4578 18.5117 14.6062C18.1654 15.7546 17.5729 16.7846 16.7344 17.696C15.9141 18.5893 14.8659 19.0723 13.5898 19.1453H3.52734C3.03516 19.127 2.61589 18.9539 2.26953 18.6257C1.94141 18.2794 1.76823 17.8601 1.75 17.3679V10.5867C1.76823 10.0763 1.95964 9.65698 2.32422 9.32886C2.6888 8.9825 3.1263 8.80933 3.63672 8.80933C4.12891 8.82756 4.54818 9.00985 4.89453 9.3562C5.24089 9.68433 5.42318 10.0945 5.44141 10.5867V14.7429C5.44141 15.2351 5.69661 15.4812 6.20703 15.4812H12.6602C13.3529 15.4447 13.9271 15.1804 14.3828 14.6882C14.8385 14.196 15.1667 13.6401 15.3672 13.0203C15.5859 12.3822 15.6953 11.7351 15.6953 11.0789C15.6953 10.4226 15.5859 9.78459 15.3672 9.16479C15.1667 8.52677 14.8385 7.96167 14.3828 7.46948C13.9271 6.97729 13.3529 6.71297 12.6602 6.67651H3.52734C2.43359 6.58537 1.84115 5.99292 1.75 4.89917C1.75 4.38875 1.91406 3.95125 2.24219 3.58667C2.58854 3.22209 3.01693 3.03068 3.52734 3.01245H13.5898ZM28.2914 14.907C28.2914 14.3966 28.4646 13.9682 28.8109 13.6218C29.1755 13.2572 29.613 13.075 30.1234 13.075H34.307L33.5961 11.0515C33.3044 10.3041 33.0128 9.60229 32.7211 8.94604C32.4477 8.27157 32.1286 7.66089 31.7641 7.11401C31.4359 6.56714 31.0622 6.27547 30.643 6.23901C30.2055 6.27547 29.8135 6.56714 29.4672 7.11401C29.1208 7.66089 28.8018 8.27157 28.5102 8.94604C28.2367 9.60229 27.9542 10.3041 27.6625 11.0515L25.0648 18.1609C24.8826 18.5437 24.6456 18.8627 24.3539 19.1179C24.0805 19.3549 23.6612 19.4734 23.0961 19.4734C22.5674 19.4734 22.1299 19.2911 21.7836 18.9265C21.4555 18.5619 21.3096 18.1244 21.3461 17.614C21.3643 17.377 21.419 17.1583 21.5102 16.9578L24.518 9.19214C25.3565 7.15047 26.1951 5.50073 27.0336 4.24292C27.8539 3.00334 29.057 2.37443 30.643 2.3562C32.2107 2.37443 33.4047 3.00334 34.225 4.24292C35.0635 5.46427 35.9021 7.11401 36.7406 9.19214L39.7484 16.9578C39.8396 17.1583 39.8943 17.377 39.9125 17.614C39.949 18.1244 39.794 18.5619 39.4477 18.9265C39.1195 19.2911 38.6911 19.4734 38.1625 19.4734C37.5609 19.4734 37.1143 19.3549 36.8227 19.1179C36.5492 18.8627 36.3214 18.5437 36.1391 18.1609L35.6195 16.739H30.1234C29.613 16.739 29.1846 16.5567 28.8383 16.1921C28.4737 15.8458 28.2914 15.4174 28.2914 14.907ZM42.2273 4.84448C42.2273 4.33407 42.4005 3.90568 42.7469 3.55933C43.1115 3.19474 43.549 3.01245 44.0594 3.01245H59.9734C60.4839 3.01245 60.9214 3.18563 61.2859 3.53198C61.6323 3.89657 61.8055 4.33407 61.8055 4.84448C61.8055 5.3549 61.6232 5.7924 61.2586 6.15698C60.9122 6.50334 60.4839 6.67651 59.9734 6.67651H53.8758V17.7507C53.7664 18.8445 53.1648 19.4369 52.0711 19.5281C51.5607 19.5281 51.1141 19.364 50.7313 19.0359C50.3667 18.6895 50.1844 18.2611 50.1844 17.7507V6.67651H44.0594C43.549 6.67651 43.1206 6.49422 42.7742 6.12964C42.4096 5.78328 42.2273 5.3549 42.2273 4.84448ZM79.4602 3.01245C80.3898 3.03068 81.2193 3.32235 81.9484 3.88745C82.6776 4.45256 83.2609 5.12703 83.6984 5.91089C84.1542 6.69474 84.4914 7.52417 84.7102 8.39917C84.9289 9.27417 85.0383 10.1674 85.0383 11.0789C85.0383 12.282 84.8469 13.4669 84.4641 14.6335C84.0995 15.782 83.4888 16.8028 82.632 17.696C81.7935 18.5893 80.7362 19.0723 79.4602 19.1453H69.9172C68.6411 19.0906 67.5747 18.6166 66.718 17.7234C65.8612 16.8302 65.2505 15.8002 64.8859 14.6335C64.5396 13.4669 64.3664 12.282 64.3664 11.0789C64.3664 9.87573 64.5487 8.69995 64.9133 7.55151C65.2779 6.38485 65.8794 5.3549 66.718 4.46167C67.5747 3.55021 68.6411 3.06714 69.9172 3.01245H70.4367H78.9406H79.4602ZM78.5305 15.4812C79.2232 15.4447 79.7974 15.1895 80.2531 14.7156C80.7271 14.2234 81.0643 13.6583 81.2648 13.0203C81.4654 12.3822 81.5656 11.7351 81.5656 11.0789C81.5656 10.4226 81.4562 9.78459 81.2375 9.16479C81.037 8.52677 80.7089 7.96167 80.2531 7.46948C79.7974 6.97729 79.2232 6.71297 78.5305 6.67651H70.7648C70.0721 6.71297 69.4979 6.97729 69.0422 7.46948C68.5865 7.96167 68.2492 8.52677 68.0305 9.16479C67.8299 9.78459 67.7297 10.4226 67.7297 11.0789C67.7297 11.7351 67.8299 12.3822 68.0305 13.0203C68.231 13.6583 68.5591 14.2234 69.0148 14.7156C69.4888 15.1895 70.0721 15.4447 70.7648 15.4812H78.5305ZM105.81 4.84448C105.81 5.3549 105.628 5.78328 105.263 6.12964C104.917 6.49422 104.489 6.67651 103.978 6.67651H93.0406C92.6943 6.69474 92.4026 6.77677 92.1656 6.92261C91.9469 7.05021 91.7828 7.20516 91.6734 7.38745C91.5641 7.55151 91.5094 7.72469 91.5094 7.90698C91.5094 8.08927 91.5641 8.27157 91.6734 8.45386C91.7828 8.61792 91.9469 8.77287 92.1656 8.9187C92.4026 9.04631 92.6943 9.11922 93.0406 9.13745H100.806C102.082 9.17391 103.13 9.47469 103.951 10.0398C104.789 10.5867 105.382 11.2247 105.728 11.9539C106.093 12.6648 106.275 13.394 106.275 14.1414C106.275 14.8705 106.093 15.5997 105.728 16.3289C105.364 17.0398 104.771 17.6778 103.951 18.2429C103.13 18.7898 102.082 19.0632 100.806 19.0632H100.642C100.533 19.0815 100.423 19.0906 100.314 19.0906H89.9781C89.4677 19.0906 89.0302 18.9174 88.6656 18.571C88.3193 18.2065 88.1461 17.769 88.1461 17.2585C88.1461 16.7481 88.3284 16.3197 88.693 15.9734C89.0393 15.6088 89.4677 15.4265 89.9781 15.4265H100.97C101.317 15.4447 101.599 15.3809 101.818 15.2351C102.055 15.0893 102.228 14.9252 102.338 14.7429C102.447 14.5424 102.502 14.3419 102.502 14.1414C102.502 14.0138 102.447 13.8406 102.338 13.6218C102.228 13.3848 102.055 13.1934 101.818 13.0476C101.599 12.9018 101.317 12.8197 100.97 12.8015H93.2047C91.9286 12.7651 90.8714 12.4734 90.0328 11.9265C89.2125 11.3796 88.6201 10.7598 88.2555 10.0671C87.9091 9.3562 87.7359 8.63615 87.7359 7.90698C87.7359 7.19604 87.9182 6.49422 88.2828 5.80151C88.6474 5.09058 89.2398 4.46167 90.0602 3.91479C90.8805 3.36792 91.9286 3.07625 93.2047 3.03979H93.3688C93.4781 3.02157 93.5875 3.01245 93.6969 3.01245H103.978C104.489 3.01245 104.917 3.19474 105.263 3.55933C105.628 3.90568 105.81 4.33407 105.81 4.84448Z" fill="white"/>
</g>
<rect x="126.102" y="13.0509" width="12.8" height="12.8" rx="6.4" transform="rotate(135 126.102 13.0509)" fill="#0166FE"/>
<g clip-path="url(#clip1_56_605)">
<path d="M136.445 18.9741C135.497 18.9741 134.559 18.8647 133.629 18.646C132.717 18.4272 131.842 18.1082 131.004 17.689C130.165 17.2515 129.427 16.6772 128.789 15.9663C128.151 15.2554 127.805 14.4077 127.75 13.4233V12.2749V3.55225C127.75 3.04183 127.932 2.62256 128.297 2.29443C128.68 1.94808 129.126 1.7749 129.637 1.7749C130.73 1.86605 131.323 2.4585 131.414 3.55225V12.5757C131.451 13.1408 131.66 13.6147 132.043 13.9976C132.444 14.3621 132.882 14.6538 133.355 14.8726C133.848 15.0913 134.349 15.2554 134.859 15.3647C135.388 15.4741 135.917 15.5288 136.445 15.5288C136.974 15.5288 137.493 15.4741 138.004 15.3647C138.533 15.2554 139.034 15.0913 139.508 14.8726C140 14.6538 140.438 14.3621 140.82 13.9976C141.221 13.6147 141.44 13.1408 141.477 12.5757V3.55225C141.477 3.04183 141.659 2.62256 142.023 2.29443C142.406 1.94808 142.853 1.7749 143.363 1.7749C144.457 1.86605 145.059 2.4585 145.168 3.55225V12.2749V13.4233C145.113 14.4077 144.758 15.2554 144.102 15.9663C143.464 16.6772 142.725 17.2515 141.887 17.689C141.048 18.1082 140.164 18.4272 139.234 18.646C138.323 18.8647 137.393 18.9741 136.445 18.9741ZM148.33 4.04443C148.33 3.53402 148.504 3.10563 148.85 2.75928C149.215 2.39469 149.652 2.2124 150.163 2.2124H166.077C166.587 2.2124 167.024 2.38558 167.389 2.73193C167.735 3.09652 167.909 3.53402 167.909 4.04443C167.909 4.55485 167.735 4.98324 167.389 5.32959C167.28 5.43896 167.17 5.53011 167.061 5.60303L155.467 14.6265H166.077C166.587 14.6265 167.024 14.7996 167.389 15.146C167.735 15.5106 167.909 15.9481 167.909 16.4585C167.909 16.9689 167.726 17.4064 167.362 17.771C167.015 18.1174 166.587 18.2905 166.077 18.2905H150.163C149.652 18.2905 149.224 18.1082 148.877 17.7437C148.513 17.3973 148.33 16.9689 148.33 16.4585C148.33 15.9845 148.485 15.5744 148.795 15.228H148.768L148.877 15.146C148.987 15.0366 149.105 14.9455 149.233 14.8726L160.963 5.87646H150.163C149.652 5.87646 149.224 5.69417 148.877 5.32959C148.513 4.98324 148.33 4.55485 148.33 4.04443Z" fill="white"/>
</g>
<defs>
<clipPath id="clip0_56_605">
<rect width="108" height="26.4" fill="white"/>
</clipPath>
<clipPath id="clip1_56_605">
<rect width="43.2" height="24" fill="white" transform="translate(126 0.399902)"/>
</clipPath>
</defs>
</svg>
